<?xml version="1.0" encoding="UTF-8" standalone="no"?><svg xmlns="http://www.w3.org/2000/svg" xmlns:xlink="http://www.w3.org/1999/xlink" contentScriptType="application/ecmascript" contentStyleType="text/css" height="330px" preserveAspectRatio="none" style="width:218px;height:330px;" version="1.1" viewBox="0 0 218 330" width="218px" zoomAndPan="magnify"><defs/><g><line style="stroke: #AAAAAA; stroke-width: 1.0; stroke-dasharray: 5.0,5.0;" x1="42" x2="42" y1="82.2969" y2="318.9609"/><line style="stroke: #AAAAAA; stroke-width: 1.0; stroke-dasharray: 5.0,5.0;" x1="101.5" x2="101.5" y1="82.2969" y2="318.9609"/><line style="stroke: #AAAAAA; stroke-width: 1.0; stroke-dasharray: 5.0,5.0;" x1="170" x2="170" y1="82.2969" y2="318.9609"/><text fill="#000000" font-family="Menlo,Monaco,Consolas,&quot;Liberation Mono&quot;,&quot;Courier New&quot;,monospace" font-size="14" lengthAdjust="spacingAndGlyphs" textLength="32" x="23" y="78.9951">User</text><ellipse cx="42" cy="13" fill="#FFFFFF" rx="8" ry="8" style="stroke: #000000; stroke-width: 2.0;"/><path d="M42,21 L42,48 M29,29 L55,29 M42,48 L29,63 M42,48 L55,63 " fill="#FFFFFF" style="stroke: #000000; stroke-width: 2.0;"/><rect fill="#FFFFFF" height="30.2969" style="stroke: #AAAAAA; stroke-width: 1.5;" width="45" x="79.5" y="51"/><text fill="#000000" font-family="Menlo,Monaco,Consolas,&quot;Liberation Mono&quot;,&quot;Courier New&quot;,monospace" font-size="14" lengthAdjust="spacingAndGlyphs" textLength="31" x="86.5" y="70.9951">CDN</text><rect fill="#FFFFFF" height="30.2969" style="stroke: #AAAAAA; stroke-width: 1.5;" width="54" x="143" y="51"/><text fill="#000000" font-family="Menlo,Monaco,Consolas,&quot;Liberation Mono&quot;,&quot;Courier New&quot;,monospace" font-size="14" lengthAdjust="spacingAndGlyphs" textLength="40" x="150" y="70.9951">Origin</text><rect fill="none" height="103.3984" style="stroke: #000000; stroke-width: 1.0;" width="194" x="13" y="99.2969"/><polygon fill="#EEEEEE" points="13,99.2969,128,99.2969,128,106.2969,118,116.2969,13,116.2969,13,99.2969" style="stroke: #000000; stroke-width: 1.0;"/><text fill="#000000" font-family="Menlo,Monaco,Consolas,&quot;Liberation Mono&quot;,&quot;Courier New&quot;,monospace" font-size="13" font-weight="bold" lengthAdjust="spacingAndGlyphs" textLength="70" x="28" y="112.3638">With CDN</text><polygon fill="#03A87C" points="90,133.4297,100,137.4297,90,141.4297,94,137.4297" style="stroke: #03A87C; stroke-width: 1.0;"/><line style="stroke: #03A87C; stroke-width: 1.0;" x1="42" x2="96" y1="137.4297" y2="137.4297"/><text fill="#000000" font-family="Menlo,Monaco,Consolas,&quot;Liberation Mono&quot;,&quot;Courier New&quot;,monospace" font-size="13" lengthAdjust="spacingAndGlyphs" textLength="36" x="49" y="132.4966">50ms</text><polygon fill="#03A87C" points="158,162.5625,168,166.5625,158,170.5625,162,166.5625" style="stroke: #03A87C; stroke-width: 1.0;"/><line style="stroke: #03A87C; stroke-width: 1.0;" x1="102" x2="164" y1="166.5625" y2="166.5625"/><text fill="#000000" font-family="Menlo,Monaco,Consolas,&quot;Liberation Mono&quot;,&quot;Courier New&quot;,monospace" font-size="13" lengthAdjust="spacingAndGlyphs" textLength="44" x="109" y="161.6294">300ms</text><polygon fill="#03A87C" points="113,176.6953,103,180.6953,113,184.6953,109,180.6953" style="stroke: #03A87C; stroke-width: 1.0;"/><line style="stroke: #03A87C; stroke-width: 1.0; stroke-dasharray: 2.0,2.0;" x1="107" x2="169" y1="180.6953" y2="180.6953"/><polygon fill="#03A87C" points="53,190.6953,43,194.6953,53,198.6953,49,194.6953" style="stroke: #03A87C; stroke-width: 1.0;"/><line style="stroke: #03A87C; stroke-width: 1.0; stroke-dasharray: 2.0,2.0;" x1="47" x2="101" y1="194.6953" y2="194.6953"/><rect fill="none" height="60.2656" style="stroke: #000000; stroke-width: 1.0;" width="194" x="13" y="241.6953"/><polygon fill="#EEEEEE" points="13,241.6953,152,241.6953,152,248.6953,142,258.6953,13,258.6953,13,241.6953" style="stroke: #000000; stroke-width: 1.0;"/><text fill="#000000" font-family="Menlo,Monaco,Consolas,&quot;Liberation Mono&quot;,&quot;Courier New&quot;,monospace" font-size="13" font-weight="bold" lengthAdjust="spacingAndGlyphs" textLength="94" x="28" y="254.7622">Without CDN</text><polygon fill="#03A87C" points="158,275.8281,168,279.8281,158,283.8281,162,279.8281" style="stroke: #03A87C; stroke-width: 1.0;"/><line style="stroke: #03A87C; stroke-width: 1.0;" x1="42" x2="164" y1="279.8281" y2="279.8281"/><text fill="#000000" font-family="Menlo,Monaco,Consolas,&quot;Liberation Mono&quot;,&quot;Courier New&quot;,monospace" font-size="13" lengthAdjust="spacingAndGlyphs" textLength="44" x="49" y="274.895">300ms</text><polygon fill="#03A87C" points="53,289.9609,43,293.9609,53,297.9609,49,293.9609" style="stroke: #03A87C; stroke-width: 1.0;"/><line style="stroke: #03A87C; stroke-width: 1.0; stroke-dasharray: 2.0,2.0;" x1="47" x2="169" y1="293.9609" y2="293.9609"/><!--
@startuml

skinparam backgroundColor transparent
skinparam shadowing false
skinparam arrowColor gray
skinparam defaultFontName Menlo,Monaco,Consolas,"Liberation Mono","Courier New",monospace

skinparam class {
    arrowColor #03a87c
    borderColor #aaaaaa
    backgroundColor #fafafa
}

skinparam activity {
    arrowColor #03a87c
    borderColor #aaaaaa
    backgroundColor transparent
    fontSize 12
}

skinparam sequence {
    actorBorderColor #000000
    actorBackgroundColor transparent
    participantBorderColor #aaaaaa
    participantBackgroundColor transparent
    groupBorderThickness 1
    arrowColor #03a87c
    borderColor #aaaaaa
    backgroundColor transparent
    boxBorderColor #aaaaaa
    boxBackgroundColor transparent
    boxFontColor #000000
    lifeLineBorderColor #aaaaaa
}

skinparam note {
    borderColor #03a87c
    backgroundColor transparent
}
hide footbox
actor User
group With CDN
   User -> CDN: 50ms
   CDN -> Origin: 300ms
   CDN <- - Origin
   User <- - CDN 
end
|||
group Without CDN
   User -> Origin: 300ms
   User <- - Origin
end

@enduml

PlantUML version 1.2017.15(Mon Jul 03 16:45:34 UTC 2017)
(GPL source distribution)
Java Runtime: OpenJDK Runtime Environment
JVM: OpenJDK 64-Bit Server VM
Java Version: 11.0.7+10-post-Ubuntu-2ubuntu218.04
Operating System: Linux
OS Version: 4.15.0-1077-aws
Default Encoding: ANSI_X3.4-1968
Language: en
Country: US
--></g></svg>