<?xml version="1.0" encoding="UTF-8" standalone="no"?><svg xmlns="http://www.w3.org/2000/svg" xmlns:xlink="http://www.w3.org/1999/xlink" contentScriptType="application/ecmascript" contentStyleType="text/css" height="493px" preserveAspectRatio="none" style="width:632px;height:493px;" version="1.1" viewBox="0 0 632 493" width="632px" zoomAndPan="magnify"><defs/><g><rect fill="#FFFFFF" height="87.2656" style="stroke: #AAAAAA; stroke-width: 1.0;" width="10" x="382.5" y="113.2969"/><rect fill="#FFFFFF" height="115.5313" style="stroke: #AAAAAA; stroke-width: 1.0;" width="10" x="382.5" y="272.8281"/><rect fill="#FFFFFF" height="14.1328" style="stroke: #AAAAAA; stroke-width: 1.0;" width="10" x="585.5" y="142.4297"/><rect fill="#FFFFFF" height="14.1328" style="stroke: #AAAAAA; stroke-width: 1.0;" width="10" x="585.5" y="302.0938"/><rect fill="#FFFFFF" height="14.1328" style="stroke: #AAAAAA; stroke-width: 1.0;" width="10" x="585.5" y="345.2266"/><line style="stroke: #AAAAAA; stroke-width: 1.0;" x1="39" x2="39" y1="82.2969" y2="208.8281"/><line style="stroke: #AAAAAA; stroke-width: 1.0; stroke-dasharray: 1.0,4.0;" x1="39" x2="39" y1="208.8281" y2="236.8281"/><line style="stroke: #AAAAAA; stroke-width: 1.0;" x1="39" x2="39" y1="236.8281" y2="406.4922"/><line style="stroke: #AAAAAA; stroke-width: 1.0;" x1="387.5" x2="387.5" y1="82.2969" y2="208.8281"/><line style="stroke: #AAAAAA; stroke-width: 1.0; stroke-dasharray: 1.0,4.0;" x1="387.5" x2="387.5" y1="208.8281" y2="236.8281"/><line style="stroke: #AAAAAA; stroke-width: 1.0;" x1="387.5" x2="387.5" y1="236.8281" y2="406.4922"/><line style="stroke: #AAAAAA; stroke-width: 1.0;" x1="590.5" x2="590.5" y1="82.2969" y2="208.8281"/><line style="stroke: #AAAAAA; stroke-width: 1.0; stroke-dasharray: 1.0,4.0;" x1="590.5" x2="590.5" y1="208.8281" y2="236.8281"/><line style="stroke: #AAAAAA; stroke-width: 1.0;" x1="590.5" x2="590.5" y1="236.8281" y2="406.4922"/><text fill="#000000" font-family="Menlo,Monaco,Consolas,&quot;Liberation Mono&quot;,&quot;Courier New&quot;,monospace" font-size="14" lengthAdjust="spacingAndGlyphs" textLength="57" x="8" y="78.9951">Browser</text><ellipse cx="39.5" cy="13" fill="#FFFFFF" rx="8" ry="8" style="stroke: #000000; stroke-width: 2.0;"/><path d="M39.5,21 L39.5,48 M26.5,29 L52.5,29 M39.5,48 L26.5,63 M39.5,48 L52.5,63 " fill="#FFFFFF" style="stroke: #000000; stroke-width: 2.0;"/><text fill="#000000" font-family="Menlo,Monaco,Consolas,&quot;Liberation Mono&quot;,&quot;Courier New&quot;,monospace" font-size="14" lengthAdjust="spacingAndGlyphs" textLength="57" x="8" y="418.4873">Browser</text><ellipse cx="39.5" cy="431.7891" fill="#FFFFFF" rx="8" ry="8" style="stroke: #000000; stroke-width: 2.0;"/><path d="M39.5,439.7891 L39.5,466.7891 M26.5,447.7891 L52.5,447.7891 M39.5,466.7891 L26.5,481.7891 M39.5,466.7891 L52.5,481.7891 " fill="#FFFFFF" style="stroke: #000000; stroke-width: 2.0;"/><text fill="#000000" font-family="Menlo,Monaco,Consolas,&quot;Liberation Mono&quot;,&quot;Courier New&quot;,monospace" font-size="14" lengthAdjust="spacingAndGlyphs" textLength="44" x="362.5" y="78.9951">Server</text><ellipse cx="387.5" cy="50" fill="#FEFECE" rx="12" ry="12" style="stroke: #A80036; stroke-width: 2.0;"/><polygon fill="#A80036" points="383.5,38,389.5,33,387.5,38,389.5,43,383.5,38" style="stroke: #A80036; stroke-width: 1.0;"/><text fill="#000000" font-family="Menlo,Monaco,Consolas,&quot;Liberation Mono&quot;,&quot;Courier New&quot;,monospace" font-size="14" lengthAdjust="spacingAndGlyphs" textLength="44" x="362.5" y="418.4873">Server</text><ellipse cx="387.5" cy="437.7891" fill="#FEFECE" rx="12" ry="12" style="stroke: #A80036; stroke-width: 2.0;"/><polygon fill="#A80036" points="383.5,425.7891,389.5,420.7891,387.5,425.7891,389.5,430.7891,383.5,425.7891" style="stroke: #A80036; stroke-width: 1.0;"/><text fill="#000000" font-family="Menlo,Monaco,Consolas,&quot;Liberation Mono&quot;,&quot;Courier New&quot;,monospace" font-size="14" lengthAdjust="spacingAndGlyphs" textLength="66" x="554.5" y="78.9951">Database</text><path d="M572.5,30 C572.5,20 590.5,20 590.5,20 C590.5,20 608.5,20 608.5,30 L608.5,56 C608.5,66 590.5,66 590.5,66 C590.5,66 572.5,66 572.5,56 L572.5,30 " fill="#FEFECE" style="stroke: #000000; stroke-width: 1.5;"/><path d="M572.5,30 C572.5,40 590.5,40 590.5,40 C590.5,40 608.5,40 608.5,30 " fill="none" style="stroke: #000000; stroke-width: 1.5;"/><text fill="#000000" font-family="Menlo,Monaco,Consolas,&quot;Liberation Mono&quot;,&quot;Courier New&quot;,monospace" font-size="14" lengthAdjust="spacingAndGlyphs" textLength="66" x="554.5" y="418.4873">Database</text><path d="M572.5,431.7891 C572.5,421.7891 590.5,421.7891 590.5,421.7891 C590.5,421.7891 608.5,421.7891 608.5,431.7891 L608.5,457.7891 C608.5,467.7891 590.5,467.7891 590.5,467.7891 C590.5,467.7891 572.5,467.7891 572.5,457.7891 L572.5,431.7891 " fill="#FEFECE" style="stroke: #000000; stroke-width: 1.5;"/><path d="M572.5,431.7891 C572.5,441.7891 590.5,441.7891 590.5,441.7891 C590.5,441.7891 608.5,441.7891 608.5,431.7891 " fill="none" style="stroke: #000000; stroke-width: 1.5;"/><rect fill="#FFFFFF" height="87.2656" style="stroke: #AAAAAA; stroke-width: 1.0;" width="10" x="382.5" y="113.2969"/><rect fill="#FFFFFF" height="115.5313" style="stroke: #AAAAAA; stroke-width: 1.0;" width="10" x="382.5" y="272.8281"/><rect fill="#FFFFFF" height="14.1328" style="stroke: #AAAAAA; stroke-width: 1.0;" width="10" x="585.5" y="142.4297"/><rect fill="#FFFFFF" height="14.1328" style="stroke: #AAAAAA; stroke-width: 1.0;" width="10" x="585.5" y="302.0938"/><rect fill="#FFFFFF" height="14.1328" style="stroke: #AAAAAA; stroke-width: 1.0;" width="10" x="585.5" y="345.2266"/><polygon fill="#03A87C" points="370.5,109.2969,380.5,113.2969,370.5,117.2969,374.5,113.2969" style="stroke: #03A87C; stroke-width: 1.0;"/><line style="stroke: #03A87C; stroke-width: 1.0;" x1="39.5" x2="376.5" y1="113.2969" y2="113.2969"/><text fill="#000000" font-family="Menlo,Monaco,Consolas,&quot;Liberation Mono&quot;,&quot;Courier New&quot;,monospace" font-size="13" lengthAdjust="spacingAndGlyphs" textLength="234" x="46.5" y="108.3638">Log me in please, here are my creds</text><polygon fill="#03A87C" points="573.5,138.4297,583.5,142.4297,573.5,146.4297,577.5,142.4297" style="stroke: #03A87C; stroke-width: 1.0;"/><line style="stroke: #03A87C; stroke-width: 1.0;" x1="392.5" x2="579.5" y1="142.4297" y2="142.4297"/><text fill="#000000" font-family="Menlo,Monaco,Consolas,&quot;Liberation Mono&quot;,&quot;Courier New&quot;,monospace" font-size="13" lengthAdjust="spacingAndGlyphs" textLength="174" x="399.5" y="137.4966">Store new session asdfasdf</text><polygon fill="#03A87C" points="403.5,152.5625,393.5,156.5625,403.5,160.5625,399.5,156.5625" style="stroke: #03A87C; stroke-width: 1.0;"/><line style="stroke: #03A87C; stroke-width: 1.0; stroke-dasharray: 2.0,2.0;" x1="397.5" x2="589.5" y1="156.5625" y2="156.5625"/><polygon fill="#03A87C" points="50.5,196.5625,40.5,200.5625,50.5,204.5625,46.5,200.5625" style="stroke: #03A87C; stroke-width: 1.0;"/><line style="stroke: #03A87C; stroke-width: 1.0; stroke-dasharray: 2.0,2.0;" x1="44.5" x2="386.5" y1="200.5625" y2="200.5625"/><text fill="#000000" font-family="Menlo,Monaco,Consolas,&quot;Liberation Mono&quot;,&quot;Courier New&quot;,monospace" font-size="13" lengthAdjust="spacingAndGlyphs" textLength="238" x="56.5" y="180.6294">OK, here you go, next time you come</text><text fill="#000000" font-family="Menlo,Monaco,Consolas,&quot;Liberation Mono&quot;,&quot;Courier New&quot;,monospace" font-size="13" lengthAdjust="spacingAndGlyphs" textLength="315" x="60.5" y="195.7622">please send me the cookie PHPSESSID=asdfasdf</text><polygon fill="#03A87C" points="370.5,268.8281,380.5,272.8281,370.5,276.8281,374.5,272.8281" style="stroke: #03A87C; stroke-width: 1.0;"/><line style="stroke: #03A87C; stroke-width: 1.0;" x1="39.5" x2="376.5" y1="272.8281" y2="272.8281"/><text fill="#000000" font-family="Menlo,Monaco,Consolas,&quot;Liberation Mono&quot;,&quot;Courier New&quot;,monospace" font-size="13" lengthAdjust="spacingAndGlyphs" textLength="210" x="46.5" y="252.895">Give me this protected resource,</text><text fill="#000000" font-family="Menlo,Monaco,Consolas,&quot;Liberation Mono&quot;,&quot;Courier New&quot;,monospace" font-size="13" lengthAdjust="spacingAndGlyphs" textLength="139" x="50.5" y="268.0278">PHPSESSID=asdfasdf</text><polygon fill="#03A87C" points="573.5,298.0938,583.5,302.0938,573.5,306.0938,577.5,302.0938" style="stroke: #03A87C; stroke-width: 1.0;"/><line style="stroke: #03A87C; stroke-width: 1.0;" x1="392.5" x2="579.5" y1="302.0938" y2="302.0938"/><text fill="#000000" font-family="Menlo,Monaco,Consolas,&quot;Liberation Mono&quot;,&quot;Courier New&quot;,monospace" font-size="13" lengthAdjust="spacingAndGlyphs" textLength="162" x="399.5" y="297.1606">Retrieve session asdfasdf</text><polygon fill="#03A87C" points="403.5,312.2266,393.5,316.2266,403.5,320.2266,399.5,316.2266" style="stroke: #03A87C; stroke-width: 1.0;"/><line style="stroke: #03A87C; stroke-width: 1.0; stroke-dasharray: 2.0,2.0;" x1="397.5" x2="589.5" y1="316.2266" y2="316.2266"/><polygon fill="#03A87C" points="573.5,341.2266,583.5,345.2266,573.5,349.2266,577.5,345.2266" style="stroke: #03A87C; stroke-width: 1.0;"/><line style="stroke: #03A87C; stroke-width: 1.0;" x1="392.5" x2="579.5" y1="345.2266" y2="345.2266"/><text fill="#000000" font-family="Menlo,Monaco,Consolas,&quot;Liberation Mono&quot;,&quot;Courier New&quot;,monospace" font-size="13" lengthAdjust="spacingAndGlyphs" textLength="145" x="399.5" y="340.2935">Retrieve sensitive data</text><polygon fill="#03A87C" points="403.5,355.3594,393.5,359.3594,403.5,363.3594,399.5,359.3594" style="stroke: #03A87C; stroke-width: 1.0;"/><line style="stroke: #03A87C; stroke-width: 1.0; stroke-dasharray: 2.0,2.0;" x1="397.5" x2="589.5" y1="359.3594" y2="359.3594"/><polygon fill="#03A87C" points="50.5,384.3594,40.5,388.3594,50.5,392.3594,46.5,388.3594" style="stroke: #03A87C; stroke-width: 1.0;"/><line style="stroke: #03A87C; stroke-width: 1.0; stroke-dasharray: 2.0,2.0;" x1="44.5" x2="386.5" y1="388.3594" y2="388.3594"/><text fill="#000000" font-family="Menlo,Monaco,Consolas,&quot;Liberation Mono&quot;,&quot;Courier New&quot;,monospace" font-size="13" lengthAdjust="spacingAndGlyphs" textLength="78" x="56.5" y="383.4263">Here you go</text><!--
@startuml

skinparam backgroundColor transparent
skinparam shadowing false
skinparam arrowColor gray
skinparam defaultFontName Menlo,Monaco,Consolas,"Liberation Mono","Courier New",monospace

skinparam class {
    arrowColor #03a87c
    borderColor #aaaaaa
    backgroundColor #fafafa
}

skinparam activity {
    arrowColor #03a87c
    borderColor #aaaaaa
    backgroundColor transparent
    fontSize 12
}

skinparam sequence {
    actorBorderColor #000000
    actorBackgroundColor transparent
    participantBorderColor #aaaaaa
    participantBackgroundColor transparent
    groupBorderThickness 1
    arrowColor #03a87c
    borderColor #aaaaaa
    backgroundColor transparent
    boxBorderColor #aaaaaa
    boxBackgroundColor transparent
    boxFontColor #000000
    lifeLineBorderColor #aaaaaa
}

skinparam note {
    borderColor #03a87c
    backgroundColor transparent
}
actor Browser
control Server
database Database
Browser -> Server: Log me in please, here are my creds
Activate Server
Server -> Database: Store new session asdfasdf
Activate Database
Server <- - Database
Deactivate Database
Server - -> Browser: OK, here you go, next time you come\n please send me the cookie PHPSESSID=asdfasdf
Deactivate Server
...
Browser -> Server: Give me this protected resource,\n PHPSESSID=asdfasdf
Activate Server
Server -> Database: Retrieve session asdfasdf
Activate Database
Server <- - Database
Deactivate Database
Server -> Database: Retrieve sensitive data
Activate Database
Server <- - Database
Deactivate Database
Browser <- - Server: Here you go
Deactivate Server

@enduml

PlantUML version 1.2017.15(Mon Jul 03 16:45:34 UTC 2017)
(GPL source distribution)
Java Runtime: OpenJDK Runtime Environment
JVM: OpenJDK 64-Bit Server VM
Java Version: 11.0.7+10-post-Ubuntu-2ubuntu218.04
Operating System: Linux
OS Version: 4.15.0-1077-aws
Default Encoding: ANSI_X3.4-1968
Language: en
Country: US
--></g></svg>