<svg xmlns="http://www.w3.org/2000/svg" viewBox="0 0 1921 976.4"><defs><style>.cls-1{fill:#fff;stroke:#000;}.cls-1,.cls-3,.cls-4{stroke-miterlimit:10;}.cls-2{fill:#4b5059;}.cls-3,.cls-4{fill:none;stroke-linecap:round;stroke-width:5px;}.cls-3{stroke:#4b5059;}.cls-4{stroke:#008abd;}</style></defs><g id="Layer_1" data-name="Layer 1"><rect class="cls-1" x="0.5" y="0.5" width="1920" height="975.4"/></g><g id="Layer_2" data-name="Layer 2"><polygon class="cls-2" points="85.34 63.19 62.85 102.14 107.83 102.14 85.34 63.19"/><line class="cls-3" x1="85.34" y1="889.32" x2="1842.85" y2="889.32"/><line class="cls-3" x1="62.85" y1="764.09" x2="107.83" y2="764.09"/><line class="cls-3" x1="62.85" y1="637.9" x2="107.83" y2="637.9"/><line class="cls-3" x1="62.85" y1="511.72" x2="107.83" y2="511.72"/><line class="cls-3" x1="62.85" y1="385.53" x2="107.83" y2="385.53"/><line class="cls-3" x1="62.85" y1="259.35" x2="107.83" y2="259.35"/><line class="cls-3" x1="62.85" y1="133.16" x2="107.83" y2="133.16"/><line class="cls-3" x1="215.55" y1="866.83" x2="215.55" y2="911.81"/><line class="cls-3" x1="345.76" y1="866.83" x2="345.76" y2="911.81"/><line class="cls-3" x1="475.98" y1="866.83" x2="475.98" y2="911.81"/><line class="cls-3" x1="606.19" y1="866.83" x2="606.19" y2="911.81"/><line class="cls-3" x1="736.4" y1="866.83" x2="736.4" y2="911.81"/><line class="cls-3" x1="866.61" y1="866.83" x2="866.61" y2="911.81"/><line class="cls-3" x1="996.82" y1="866.83" x2="996.82" y2="911.81"/><line class="cls-3" x1="1127.03" y1="866.83" x2="1127.03" y2="911.81"/><line class="cls-3" x1="1257.24" y1="866.83" x2="1257.24" y2="911.81"/><line class="cls-3" x1="1387.45" y1="866.83" x2="1387.45" y2="911.81"/><line class="cls-3" x1="1517.66" y1="866.83" x2="1517.66" y2="911.81"/><line class="cls-3" x1="1647.87" y1="866.83" x2="1647.87" y2="911.81"/><line class="cls-3" x1="1778.08" y1="866.83" x2="1778.08" y2="911.81"/><path class="cls-4" d="M1777.56,185.67C1498.32,941.82,84.83,941.83,84.83,941.83" transform="translate(0.5 -52.5)"/><polygon class="cls-2" points="1862.33 889.32 1823.38 866.83 1823.38 911.81 1862.33 889.32"/><line class="cls-3" x1="85.34" y1="85.28" x2="85.34" y2="889.32"/></g></svg>