<svg xmlns="http://www.w3.org/2000/svg" viewBox="0 0 1920 975.4"><defs><style>.cls-1{fill:#fff;}.cls-2{fill:#4b5059;}.cls-3,.cls-4{fill:none;stroke-linecap:round;stroke-miterlimit:10;stroke-width:5px;}.cls-3{stroke:#4b5059;}.cls-4{stroke:#008abd;}</style></defs><g id="Layer_1" data-name="Layer 1"><rect class="cls-1" width="1920" height="975.4"/></g><g id="Layer_2" data-name="Layer 2"><polygon class="cls-2" points="84.84 62.69 62.35 101.64 107.33 101.64 84.84 62.69"/><line class="cls-3" x1="84.84" y1="888.82" x2="1842.35" y2="888.82"/><line class="cls-3" x1="62.35" y1="763.59" x2="107.33" y2="763.59"/><line class="cls-3" x1="62.35" y1="637.4" x2="107.33" y2="637.4"/><line class="cls-3" x1="62.35" y1="511.22" x2="107.33" y2="511.22"/><line class="cls-3" x1="62.35" y1="385.03" x2="107.33" y2="385.03"/><line class="cls-3" x1="62.35" y1="258.85" x2="107.33" y2="258.85"/><line class="cls-3" x1="62.35" y1="132.66" x2="107.33" y2="132.66"/><line class="cls-3" x1="215.05" y1="866.33" x2="215.05" y2="911.31"/><line class="cls-3" x1="345.26" y1="866.33" x2="345.26" y2="911.31"/><line class="cls-3" x1="475.48" y1="866.33" x2="475.48" y2="911.31"/><line class="cls-3" x1="605.69" y1="866.33" x2="605.69" y2="911.31"/><line class="cls-3" x1="735.9" y1="866.33" x2="735.9" y2="911.31"/><line class="cls-3" x1="866.11" y1="866.33" x2="866.11" y2="911.31"/><line class="cls-3" x1="996.32" y1="866.33" x2="996.32" y2="911.31"/><line class="cls-3" x1="1126.53" y1="866.33" x2="1126.53" y2="911.31"/><line class="cls-3" x1="1256.74" y1="866.33" x2="1256.74" y2="911.31"/><line class="cls-3" x1="1386.95" y1="866.33" x2="1386.95" y2="911.31"/><line class="cls-3" x1="1517.16" y1="866.33" x2="1517.16" y2="911.31"/><line class="cls-3" x1="1647.37" y1="866.33" x2="1647.37" y2="911.31"/><line class="cls-3" x1="1777.58" y1="866.33" x2="1777.58" y2="911.31"/><polygon class="cls-2" points="1861.83 888.82 1822.88 866.33 1822.88 911.31 1861.83 888.82"/><line class="cls-3" x1="84.84" y1="84.78" x2="84.84" y2="888.82"/><path class="cls-4" d="M84.83,690.4H605.69s86.93-358,260.42-358c187,0,260.42,358,260.42,358h651" transform="translate(0 -53)"/></g></svg>