<svg xmlns="http://www.w3.org/2000/svg" viewBox="0 0 508 291.1"><defs><style>.cls-1{fill:#4b5059;stroke:#f2f2f2;stroke-miterlimit:10;stroke-width:10px;}</style></defs><g id="Layer_1" data-name="Layer 1"><path class="cls-1" d="M505,326.28a70.26,70.26,0,0,0-61.25-69.68A70.15,70.15,0,0,0,374,177.92a70,70,0,0,0-46.73,17.8,117.11,117.11,0,0,0-228,29.3c-2.09-.15-4.2-.25-6.34-.25A85.88,85.88,0,0,0,92,396.53v0H437.33v-.07A70.26,70.26,0,0,0,505,326.28Z" transform="translate(-2 -110.45)"/><path class="cls-1" d="M131.07,236.05a95.44,95.44,0,0,1,62.79-89.68" transform="translate(-2 -110.45)"/></g></svg>