<svg xmlns="http://www.w3.org/2000/svg" viewBox="0 0 512 512"><defs><style>.cls-1{fill:#4b5059;}.cls-2{fill:none;stroke:#f2f2f2;stroke-miterlimit:10;stroke-width:10px;}.cls-3{font-size:36px;font-family:Verdana;}.cls-3,.cls-4{fill:#f2f2f2;}.cls-4{font-size:60px;font-family:Verdana-Bold, Verdana;font-weight:700;}</style></defs><g id="Layer_2" data-name="Layer 2"><rect class="cls-1" width="512" height="512"/></g><g id="Layer_1" data-name="Layer 1"><path class="cls-2" d="M480.5,247a63.37,63.37,0,0,0-55.22-62.83,65.23,65.23,0,0,0,.46-7.58,63.34,63.34,0,0,0-105.49-47.3,105.58,105.58,0,0,0-205.59,26.42c-1.89-.14-3.79-.24-5.72-.24a77.44,77.44,0,0,0-.78,154.87v0H419.49v-.06A63.36,63.36,0,0,0,480.5,247Z"/><path class="cls-2" d="M143.36,165.61A86,86,0,0,1,200,84.76"/><text class="cls-3" transform="translate(70.19 387.44)">FH Cloud Computing</text><text class="cls-4" transform="translate(100.38 449.44)">2020 Fall</text></g></svg>