<svg xmlns="http://www.w3.org/2000/svg" viewBox="0 0 2250 442.49"><defs><style>.cls-1{fill:#4b5059;}.cls-2{fill:none;stroke:#f2f2f2;stroke-miterlimit:10;stroke-width:20px;}.cls-3{font-size:144px;font-family:Verdana;}.cls-3,.cls-4{fill:#f2f2f2;}.cls-4{font-size:256px;font-family:Verdana-Bold, Verdana;font-weight:700;}</style></defs><g id="Layer_2" data-name="Layer 2"><rect class="cls-1" width="2250" height="400"/></g><g id="Layer_1" data-name="Layer 1"><path class="cls-2" d="M642,278.74A79.42,79.42,0,0,0,572.8,200a78.41,78.41,0,0,0,.59-9.5,79.4,79.4,0,0,0-132.22-59.29,132.34,132.34,0,0,0-257.68,33.11c-2.37-.17-4.75-.29-7.17-.29a97.05,97.05,0,0,0-1,194.1v0H565.55v-.07A79.4,79.4,0,0,0,642,278.74Z"/><path class="cls-2" d="M219.46,176.78a107.82,107.82,0,0,1,71-101.34"/><text class="cls-3" transform="translate(715.76 144.86)">FH Cloud Computing</text><text class="cls-4" transform="translate(700.76 364.86)">2020 Fall</text></g></svg>